<svg data-v-0dd9719b="" version="1.0" xmlns="http://www.w3.org/2000/svg" xmlns:xlink="http://www.w3.org/1999/xlink" width="100%" height="100%" viewBox="0 0 340.000000 250.000000" preserveAspectRatio="xMidYMid meet" color-interpolation-filters="sRGB" style="margin: auto;"> <rect data-v-0dd9719b="" x="0" y="0" width="100%" height="100%" fill="#fff" fill-opacity="1" class="background"></rect> <rect data-v-0dd9719b="" x="0" y="0" width="100%" height="100%" fill="url(#watermark)" fill-opacity="1" class="watermarklayer"></rect> <g data-v-0dd9719b="" fill="#ee5852" class="icon-text-wrapper icon-svg-group iconsvg" transform="translate(47.51000213623047,95.83874702453613)"><g class="iconsvg-imagesvg" transform="translate(0,1.6595096588134766)"><g><rect fill="#ee5852" fill-opacity="0" stroke-width="2" x="0" y="0" width="60" height="55.00348355395842" class="image-rect"></rect> <svg x="0" y="0" width="60" height="55.00348355395842" filtersec="colorsb669230519" class="image-svg-svg primary" style="overflow: visible;"><svg xmlns="http://www.w3.org/2000/svg" viewBox="0.0012400150299072266 0.0072269439697265625 169.36192321777344 155.25833129882812"><title>资源 98</title><g><path d="M96.71 155.19c-8.24 0-16.48.17-24.71 0-38.68-.94-62.6-41.9-44.2-75.92 7.31-13.5 15.1-26.76 23-39.9C61.3 22 84 22 94.72 39.31c6.89 11.18 13.13 22.75 19.68 34.12 1.34 2.32 2.68 4.63 4.23 6.8s3.51 3.62 6.27 2.3 3.27-4 2.78-6.82a5.84 5.84 0 0 0-.62-1.89C118.17 58.4 110.74 42 99.84 27.93c-15-19.32-45-16.08-58.33 5.72C33 47.5 25.17 61.74 17.06 75.81c-4.85 8.41-8.86 10.74-13.62 7.83-4.57-2.8-4.6-7.28 0-15.29 7.76-13.52 15.48-27 23.35-40.49 21.67-37 69.52-37.18 91.44-.28q10.57 17.81 20.71 35.84c10.71 19-.84 39.13-22.63 39.44-14.25.2-28.49 0-42.74.1-3.78 0-8.45-.19-8.31 5.22.13 5.2 4.68 5.13 8.52 5.14 14.69 0 29.38.13 44.07 0 28.14-.24 45-28.73 31.48-53.6-7.75-14.28-16.19-28.18-24.33-42.26a49.71 49.71 0 0 1-3.39-6.46c-1.61-4.12-.43-7.6 3.39-9.7 3.7-2 7-.75 9.42 2.42a53.57 53.57 0 0 1 3.9 6.21q11.76 20.2 23.45 40.43c20 34.66-1.48 75.26-41.38 78.25a290.81 290.81 0 0 1-48.67.09c-20.4-1.89-29.93-20.66-20-38.65 6.56-11.88 13.61-23.5 20.41-35.25a38.86 38.86 0 0 0 3-5.94 4.77 4.77 0 0 0-2.27-6.29c-2.23-1.25-4.34-.66-6.12 1a11.33 11.33 0 0 0-2.08 2.6c-7.81 13.47-16.1 26.7-23.24 40.53C28.38 112 45.43 139.56 74 139.86c15.8.16 31.61 0 47.41 0 2 0 4 0 6 .13 4.55.26 7.91 2.34 8.09 7.15.2 5.18-3.23 7.76-8 7.86-10.23.22-20.47.07-30.71.07z" fill="#ee5852"></path></g></svg></svg> <!----></g></g> <g transform="translate(67,0)"><g data-gra="path-name" fill-rule="" class="tp-name iconsvg-namesvg" transform="translate(0,0)"><g transform="scale(1)"><g><path d="M33.84-12.69L44.41-2.29 42.03-1.3 40.32 2.56 31-6.79 31 4.32 24.88 4.32 24.88-7.69Q20.65-2.75 14.71 2.92L14.71 2.92 12.29 0.09 10.13-0.4Q16.96-7.65 21.11-12.64L21.11-12.64Q18.59-12.64 14.08-12.55L14.08-12.55 7.06 2.56 4 0.09 0.99-0.36 8.82-15.57 13.9-13.46 14.08-16.16 13.46-18 24.88-18 24.88-19.84Q24.88-21.82 24.57-23.31L24.57-23.31Q22.14-21.24 17.77-18.09L17.77-18.09 16.02-20.97 14.35-21.91 19.84-26.41 14.45-26.41 14.45-30.24 12.01-26.68 4.09-32.09 7.74-37.13 14.45-32.67 14.45-34.34Q14.45-35.37 14.17-35.91L14.17-35.91 17.23-35.55 40.95-35.55Q42.48-35.55 42.48-34.11L42.48-34.11 42.48-26.59 36.31-26.59 36.31-30.06Q28.35-30.2 20.11-30.06L20.11-30.06 20.11-26.64Q21.91-28.13 23.94-30.02L23.94-30.02 27.31-25.79Q25.79-24.34 24.97-23.67L24.97-23.67Q28.98-22.77 31-23.04L31-23.04 31-18 42.48-18 41.67-12.6Q36.72-12.69 33.84-12.69L33.84-12.69ZM12.91-21.96L9.72-16.79 0.99-21.91 4.23-26.91 12.91-21.96ZM28.53-25.83L32.27-29.74 41.31-22.54 37.62-18.5 28.53-25.83ZM61.83-10.8L62.19-37.62 68.13-37.62Q68-31.05 67.86-18.4L67.86-18.4 67.55 2.02 63.99 1.93 61.61 3.96 61.78-8.59 48.78-2.25 48.15-5.8 46.62-7.92 51.98-10.21 51.98-21.42 47.3-21.42 47.3-26.95 51.98-26.95 51.98-32.94Q51.98-35.41 51.62-36.85L51.62-36.85Q55.66-35.82 57.6-36.09L57.6-36.09 57.6-26.95 61.56-26.95 60.75-21.42 57.6-21.42 57.6-12.64 60.57-13.9 61.83-10.8ZM71.33-1.13L71.33-30.6Q71.33-33.48 70.88-35.28L70.88-35.28Q75.24-34.02 77.22-34.38L77.22-34.38 77.22-1.13 71.33-1.13ZM80.41 3.65L80.41-32.85Q80.41-36.54 79.92-38.52L79.92-38.52Q84.33-37.13 86.44-37.48L86.44-37.48 86.44 3.65 80.41 3.65ZM120.02-8.73L132.39-1.84 130.55-0.14 130.14 4.63 115.47-3.82Q112.95-1.13 107.28 4.54L107.28 4.54 104.44 1.93 101.25 1.35Q106.56-3.87 109.66-7.2L109.66-7.2 104.27-10.3 107.59-15.62 114.08-12.01Q115.65-13.77 118.39-16.92L118.39-16.92 105.7-16.92Q102.38-9 98.41-0.54L98.41-0.54 94.32-0.99 91.13 0.49Q97.11-12.46 102.69-26.05L102.69-26.05 94.05-25.92 94.19-29.79 93.47-32.04 105.12-32.04Q106.65-35.91 107.37-37.84L107.37-37.84 114.39-37.84 112-32.04 131.99-32.04 130.86-26.01Q122.53-26.19 109.58-26.1L109.58-26.1 108.09-22.59 126.36-22.59 126.36-22.54 126.94-22.54Q128.66-22.54 129.19-21.38L129.19-21.38Q129.74-20.25 128.75-18.95L128.75-18.95Q123.25-12.33 120.02-8.73L120.02-8.73ZM139.54-32.8L138.91-34.74 147.69-34.74 147.24-38.07 153.09-38.52 153.63-34.74 162.27-34.74 163.08-38.74 168.97-37.89 168.25-34.74 177.07-34.74 176.09-29.56Q170.32-29.65 167.09-29.65L167.09-29.65 166.28-26.1 160.69-26.86 161.24-29.65 154.35-29.65 154.71-26.91 148.77-26.28 148.32-29.61 139.37-29.47 139.54-32.8ZM141.79-23.98L145.22-28.04 151.83-22.95 148.46-18.77 141.79-23.98ZM147.47-16.74L144.76-11.79 136.94-16.34 139.63-21.11 147.47-16.74ZM159.16-2.79L175.59-2.79Q177.57-2.79 178.97-3.73L178.97-3.73 177.93 3.06 158.94 3.06Q156.24 3.06 154.75 1.53L154.75 1.53Q153.27 0.09 153.27-2.52L153.27-2.52 153.27-8.46 141.25 3.78 139.5-0.18 137.12-2.02 149.53-13.41 153.27-9.49 153.27-25.47Q154.49-24.97 155.61-24.79L155.61-24.79 170.91-24.84Q172.26-24.84 172.26-23.4L172.26-23.4Q172.26-17.55 172.17-6.88L172.17-6.88 164.88-8.82 166.19-9.99 166.23-19.75Q161.5-19.75 159.16-19.71L159.16-19.71 159.16-2.79Z" transform="translate(-0.9900000095367432, 38.7400016784668)"></path></g> <!----> <!----> <!----> <!----> <!----> <!----> <!----></g></g> <g data-gra="path-slogan" fill-rule="" class="tp-slogan iconsvg-slogansvg" fill="#ee5852" transform="translate(5,49.37000274658203)"><rect x="0" height="1" y="3.9750003814697266" width="22.324172973632812"></rect> <rect height="1" y="3.9750003814697266" width="22.324172973632812" x="145.65582275390625"></rect> <g transform="translate(25.324172973632812,0)"><g transform="scale(1)"><path d="M7.17-6.09L7.17-6.09L6.09-6.09Q6-7.73 3.94-7.83L3.94-7.83Q2.02-7.78 2.02-6.33L2.02-6.33Q2.02-5.39 3.05-5.25L3.05-5.25L5.48-4.69Q7.41-4.22 7.41-2.34L7.41-2.34Q7.36 0.05 4.03 0.14L4.03 0.14Q2.20 0.14 1.45-0.61L1.45-0.61Q0.52-1.31 0.56-2.77L0.56-2.77L1.69-2.77Q1.73-0.80 4.03-0.75L4.03-0.75Q6.28-0.80 6.33-2.20L6.33-2.20Q6.52-3.38 4.45-3.75L4.45-3.75L2.67-4.13Q0.84-4.64 0.84-6.19L0.84-6.19Q0.98-8.72 3.84-8.81L3.84-8.81Q7.08-8.81 7.17-6.09ZM10.03-5.06L14.53-5.06L14.53-8.58L15.70-8.58L15.70 0L14.53 0L14.53-3.98L10.03-3.98L10.03 0L8.86 0L8.86-8.58L10.03-8.58L10.03-5.06ZM18.80-1.03L23.95-1.03L23.95 0L17.63 0L17.63-8.58L23.86-8.58L23.86-7.59L18.80-7.59L18.80-4.92L23.48-4.92L23.48-3.89L18.80-3.89L18.80-1.03ZM26.86-8.58L31.17-1.64L31.17-8.58L32.30-8.58L32.30 0L30.98 0L26.63-6.94L26.58-6.94L26.58 0L25.45 0L25.45-8.58L26.86-8.58ZM34.92-1.03L40.22-1.03L40.22 0L33.47 0L33.47-0.94L38.72-7.59L33.84-7.59L33.84-8.58L40.22-8.58L40.22-7.59L34.92-1.03ZM42.52-5.06L47.02-5.06L47.02-8.58L48.19-8.58L48.19 0L47.02 0L47.02-3.98L42.52-3.98L42.52 0L41.34 0L41.34-8.58L42.52-8.58L42.52-5.06ZM51.28-1.03L56.44-1.03L56.44 0L50.11 0L50.11-8.58L56.34-8.58L56.34-7.59L51.28-7.59L51.28-4.92L55.97-4.92L55.97-3.89L51.28-3.89L51.28-1.03ZM59.34-8.58L63.66-1.64L63.66-8.58L64.78-8.58L64.78 0L63.47 0L59.11-6.94L59.06-6.94L59.06 0L57.94 0L57.94-8.58L59.34-8.58ZM76.83-8.58L73.59-3.47L73.59 0L72.42 0L72.42-3.47L69.19-8.58L70.55-8.58L72.98-4.45L75.47-8.58L76.83-8.58ZM84.66-4.27L84.66-4.27Q84.47-7.64 81.66-7.83L81.66-7.83Q78.80-7.69 78.66-4.27L78.66-4.27Q78.80-0.94 81.66-0.80L81.66-0.80Q84.47-0.98 84.66-4.27ZM85.83-4.27L85.83-4.27Q85.55 0 81.66 0.14L81.66 0.14Q77.72 0 77.44-4.27L77.44-4.27Q77.67-8.72 81.66-8.81L81.66-8.81Q85.55-8.67 85.83-4.27ZM92.86-3.19L92.86-8.58L94.03-8.58L94.03-3.05Q93.89 0.05 90.52 0.14L90.52 0.14Q87.38 0.05 87.23-2.86L87.23-2.86L87.23-8.58L88.41-8.58L88.41-3.19Q88.45-0.84 90.56-0.80L90.56-0.80Q92.86-0.84 92.86-3.19L92.86-3.19ZM101.34-3.89L97.13-3.89L97.13 0L95.95 0L95.95-8.58L101.91-8.58L101.91-7.59L97.13-7.59L97.13-4.92L101.34-4.92L101.34-3.89ZM108.75 0L107.91-2.48L104.44-2.48L103.55 0L102.38 0L105.61-8.58L106.92-8.58L110.02 0L108.75 0ZM106.17-7.31L104.81-3.52L107.48-3.52L106.22-7.31L106.17-7.31ZM112.45-8.58L116.77-1.64L116.77-8.58L117.89-8.58L117.89 0L116.58 0L112.22-6.94L112.17-6.94L112.17 0L111.05 0L111.05-8.58L112.45-8.58Z" transform="translate(-0.5602678571428572, 8.8125)"></path></g></g></g></g></g><defs v-gra="od"></defs></svg>